<?xml version="1.0" standalone="no"?>
<!DOCTYPE svg PUBLIC "-//W3C//DTD SVG 20010904//EN"
 "http://www.w3.org/TR/2001/REC-SVG-20010904/DTD/svg10.dtd">
<svg version="1.0" xmlns="http://www.w3.org/2000/svg"
 width="180.000000pt" height="180.000000pt" viewBox="0 0 180.000000 180.000000"
 preserveAspectRatio="xMidYMid meet">
<metadata>
Created by potrace 1.14, written by Peter Selinger 2001-2017
</metadata>
<g transform="translate(0.000000,180.000000) scale(0.100000,-0.100000)"
fill="#000000" stroke="none">
<path d="M1457 1704 c-1 -1 -35 -4 -75 -8 -40 -3 -77 -8 -82 -11 -6 -4 -27 -8
-48 -10 -20 -2 -64 -13 -97 -24 -32 -11 -63 -17 -67 -15 -4 3 -8 0 -8 -5 0 -6
-3 -10 -7 -9 -29 9 -391 -164 -423 -202 -3 -3 -27 -22 -55 -41 -77 -55 -179
-149 -260 -240 -41 -46 -116 -147 -114 -155 0 -4 -4 -10 -10 -13 -15 -9 -111
-200 -111 -221 0 -9 -5 -21 -12 -28 -7 -7 -9 -12 -6 -12 4 0 2 -15 -3 -32 -22
-74 -28 -204 -11 -268 26 -104 90 -180 193 -235 38 -20 69 -33 69 -29 0 3 6 2
13 -4 39 -33 318 -49 424 -25 81 19 208 61 273 91 30 14 58 25 63 24 4 -1 7 3
7 8 0 6 5 10 12 10 11 0 145 80 182 110 43 33 194 175 195 183 0 5 16 27 35
50 49 61 95 162 99 219 10 129 -46 209 -174 249 -41 13 -76 25 -78 26 -8 5 33
31 41 27 5 -3 8 -1 8 5 0 5 10 13 23 17 12 4 24 10 27 13 3 4 28 20 55 36 111
64 198 195 200 304 3 108 -63 191 -162 207 -36 6 -113 11 -116 8z m-274 -163
c59 -33 83 -136 56 -236 -37 -136 -123 -243 -238 -299 -40 -19 -74 -35 -76
-35 -3 -1 -11 -1 -17 -1 -7 0 10 -11 37 -25 59 -28 74 -40 99 -79 30 -48 45
-121 44 -224 -2 -154 -43 -250 -157 -362 -128 -127 -247 -148 -311 -56 -53 78
-65 134 -64 301 1 83 4 161 7 175 4 14 11 49 17 79 22 117 141 422 174 443 6
4 8 8 3 8 -6 0 59 108 74 120 3 3 10 12 15 22 5 9 33 43 62 76 88 101 196 137
275 93z"/>
</g>
</svg>
